<?xml version="1.0" encoding="UTF-8"?>
<svg version="1.1" xmlns="http://www.w3.org/2000/svg" width="157" height="136">
<path d="M0 0 C51.81 0 103.62 0 157 0 C157 44.88 157 89.76 157 136 C105.19 136 53.38 136 0 136 C0 91.12 0 46.24 0 0 Z " fill="#F9F9F9" transform="translate(0,0)"/>
<path d="M0 0 C22.77 0 45.54 0 69 0 C69 42.57 69 85.14 69 129 C68.67 129 68.34 129 68 129 C67.67 88.74 67.34 48.48 67 7 C63.7 6.01 60.4 5.02 57 4 C57 45.25 57 86.5 57 129 C56.67 129 56.34 129 56 129 C56 90.39 56 51.78 56 12 C53.03 11.67 50.06 11.34 47 11 C47 12.65 47 14.3 47 16 C44.69 16 42.38 16 40 16 C40 52.96 40 89.92 40 128 C30.1 128.99 20.2 129.98 10 131 C10 131.66 10 132.32 10 133 C6.7 133 3.4 133 0 133 C0 89.11 0 45.22 0 0 Z " fill="#FEFEFE" transform="translate(0,0)"/>
<path d="M0 0 C14.5421286 1.81776608 28.18019506 8.12242179 42 13 C42.33 50.62 42.66 88.24 43 127 C49.93 127.99 56.86 128.98 64 130 C64 130.33 64 130.66 64 131 C55.09 131 46.18 131 37 131 C37 94.04 37 57.08 37 19 C34.36 18.67 31.72 18.34 29 18 C26.671875 17.3515625 26.671875 17.3515625 24.75 16.625 C19.26956637 14.75011481 13.61932357 13.40483089 8 12 C8 50.61 8 89.22 8 129 C5.36 129 2.72 129 0 129 C0 86.43 0 43.86 0 0 Z " fill="#16253B" transform="translate(71,0)"/>
<path d="M0 0 C4.455 0.99 4.455 0.99 9 2 C9 42.59 9 83.18 9 125 C6.03 125 3.06 125 0 125 C0 83.75 0 42.5 0 0 Z " fill="#3C86B0" transform="translate(58,4)"/>
<path d="M0 0 C6 0 6 0 8 1 C8 39.94 8 78.88 8 119 C5.36 119 2.72 119 0 119 C0 79.73 0 40.46 0 0 Z " fill="#AEBAC1" transform="translate(48,11)"/>
<path d="M0 0 C1.65 0 3.3 0 5 0 C5 37.62 5 75.24 5 114 C-18.00675676 115.15033784 -18.00675676 115.15033784 -25.75 115.0625 C-26.56597656 115.05798828 -27.38195312 115.05347656 -28.22265625 115.04882812 C-30.14847296 115.03749979 -32.07424977 115.01960605 -34 115 C-24.74298603 108.82865735 -12.07033221 111.10703322 -1 110 C-0.67 73.7 -0.34 37.4 0 0 Z " fill="#EDA0A0" transform="translate(41,17)"/>
<path d="M0 0 C0.33 0 0.66 0 1 0 C1 37.62 1 75.24 1 114 C-22.00675676 115.15033784 -22.00675676 115.15033784 -29.75 115.0625 C-30.56597656 115.05798828 -31.38195312 115.05347656 -32.22265625 115.04882812 C-34.14847296 115.03749979 -36.07424977 115.01960605 -38 115 C-34.41330729 112.60887152 -31.60018739 112.55780786 -27.4375 112.375 C-26.79103516 112.33632812 -26.14457031 112.29765625 -25.47851562 112.2578125 C-16.98438788 111.81696806 -8.51610836 112 0 112 C0 75.04 0 38.08 0 0 Z " fill="#EFABAB" transform="translate(45,17)"/>
<path d="M0 0 C0.33 0 0.66 0 1 0 C1 35.97 1 71.94 1 109 C5.62 108.67 10.24 108.34 15 108 C19.10469554 108.55973121 22.98791349 109.1108746 27 110 C27 110.33 27 110.66 27 111 C18.09 111 9.18 111 0 111 C0 74.37 0 37.74 0 0 Z " fill="#28374A" transform="translate(108,20)"/>
<path d="M0 0 C1.71413086 0.07831055 1.71413086 0.07831055 3.46289062 0.15820312 C6.24647839 0.28631804 9.02955629 0.42118991 11.8125 0.5625 C11.8125 0.8925 11.8125 1.2225 11.8125 1.5625 C-1.2039602 2.3305946 -14.14873872 2.69524757 -27.1875 2.5625 C-19.77930946 -2.37629369 -8.53275299 -0.43488548 0 0 Z " fill="#F3C2C2" transform="translate(34.1875,129.4375)"/>
<path d="M0 0 C5.34359363 -0.21810586 10.51115374 0.20349189 15.8125 0.875 C17.09769531 1.03742188 18.38289063 1.19984375 19.70703125 1.3671875 C23 2 23 2 26 4 C17.75 4 9.5 4 1 4 C1 3.67 1 3.34 1 3 C2.98 2.67 4.96 2.34 7 2 C4.69 1.67 2.38 1.34 0 1 C0 0.67 0 0.34 0 0 Z " fill="#9EA4AD" transform="translate(123,128)"/>
</svg>
