<?xml version="1.0" encoding="UTF-8"?>
<svg version="1.1" xmlns="http://www.w3.org/2000/svg" width="337" height="297">
<path d="M0 0 C111.21 0 222.42 0 337 0 C337 98.01 337 196.02 337 297 C225.79 297 114.58 297 0 297 C0 198.99 0 100.98 0 0 Z " fill="#FCFDFE" transform="translate(0,0)"/>
<path d="M0 0 C60.72 0 121.44 0 184 0 C184 96.36 184 192.72 184 292 C179.05 291.67 174.1 291.34 169 291 C166.20987689 290.86847144 163.41954197 290.7412562 160.62890625 290.62109375 C150.09745318 290.08616948 139.65979055 288.78228534 129.20141602 287.47094727 C125.91189577 287.05929588 122.62113511 286.65892546 119.33007812 286.25976562 C117.20825176 285.99805634 115.0865039 285.73570961 112.96484375 285.47265625 C111.99594711 285.3548732 111.02705048 285.23709015 110.02879333 285.11573792 C108.64543541 284.94061928 108.64543541 284.94061928 107.23413086 284.76196289 C106.43792831 284.66283096 105.64172577 284.56369904 104.82139587 284.46156311 C100.84921148 283.81173804 96.92914036 282.8731423 93 282 C93 200.16 93 118.32 93 34 C90.69 33.67 88.38 33.34 86 33 C83.49900438 32.25072491 81.06496771 31.46634468 78.609375 30.59375 C77.91556229 30.35319382 77.22174957 30.11263763 76.50691223 29.86479187 C74.25262489 29.08209955 72.00139329 28.29097372 69.75 27.5 C67.38331911 26.67646806 65.01581735 25.85532978 62.64820862 25.0344696 C61.05572398 24.48232694 59.4634695 23.92952002 57.8714447 23.37605286 C50.78902152 20.91662801 43.68084331 18.54105778 36.5625 16.1875 C28.55379715 13.52568063 20.54575595 10.86234679 12.5625 8.125 C11.74531494 7.85067139 10.92812988 7.57634277 10.08618164 7.29370117 C2.86054436 4.7918913 2.86054436 4.7918913 0 2 C0 1.34 0 0.68 0 0 Z " fill="#FDFEFE" transform="translate(153,0)"/>
<path d="M0 0 C6.05077868 1.34461749 11.59511768 2.75373166 17.36328125 4.8359375 C18.14131607 5.11154007 18.91935089 5.38714264 19.72096252 5.6710968 C21.38818842 6.2618924 23.05465008 6.85484847 24.72039795 7.44979858 C29.16200775 9.03514654 33.61020822 10.60175246 38.05859375 12.16796875 C38.96587219 12.487621 39.87315063 12.80727325 40.80792236 13.13661194 C50.13264502 16.41332308 59.49656421 19.56838366 68.875 22.6875 C69.62327057 22.93707458 70.37154114 23.18664917 71.14248657 23.44378662 C79.0643497 26.08422505 86.99847777 28.59954333 95 31 C95 112.84 95 194.68 95 279 C108.27347173 280.56201188 108.27347173 280.56201188 121.54789734 282.11573792 C125.94620845 282.62916431 130.34431759 283.14431238 134.74243164 283.65942383 C137.05877864 283.93043856 139.37518599 284.20093786 141.69165039 284.47094727 C145.07975122 284.86598419 148.46762887 285.26288846 151.85546875 285.66015625 C152.88673386 285.77996353 153.91799896 285.89977081 154.98051453 286.02320862 C159.67658775 286.5755798 164.34469673 287.15873958 169 288 C169 288.33 169 288.66 169 289 C133.62019989 289.18996258 133.62019989 289.18996258 120.1875 288.5625 C119.33784668 288.52326416 118.48819336 288.48402832 117.61279297 288.44360352 C114.37787898 288.2708847 111.24595999 288.03973812 108.04341125 287.52232361 C103.07240476 286.80384353 98.07599329 286.64653834 93.0625 286.4375 C92.09248047 286.39431641 91.12246094 286.35113281 90.12304688 286.30664062 C87.74881399 286.20137907 85.37449079 286.09924293 83 286 C82.99576806 284.76402604 82.99153612 283.52805208 82.98717594 282.25462437 C82.88660072 252.94550144 82.78091082 223.63640162 82.66888306 194.32732046 C82.65511272 190.7235035 82.64138574 187.11968637 82.62768555 183.51586914 C82.62495724 182.79838391 82.62222894 182.08089867 82.61941796 181.34167146 C82.57528744 169.7090749 82.53467297 158.07646856 82.49534739 146.44385488 C82.4549477 134.51655415 82.41079396 122.58927163 82.36312145 110.66199774 C82.33643832 103.95892196 82.31151798 97.25584904 82.29092598 90.55275154 C82.27139919 84.25163042 82.24726751 77.95054419 82.21950912 71.64945412 C82.21011764 69.32941061 82.20244998 67.00935944 82.19658089 64.68930435 C82.18835519 61.53669173 82.17408878 58.38416463 82.15821838 55.23158264 C82.15724028 54.30066789 82.15626217 53.36975314 82.15525442 52.41062886 C82.53475377 48.38497346 82.53475377 48.38497346 81 45 C79.50563354 44.71827518 78.0037331 44.47646583 76.5 44.25 C70.95653343 43.27883003 65.64010012 41.80094035 60.26367188 40.17333984 C52.4835847 37.82133877 44.65412554 35.65583077 36.81787109 33.49926758 C35.80547363 33.21849365 34.79307617 32.93771973 33.75 32.6484375 C32.85796875 32.40270996 31.9659375 32.15698242 31.046875 31.90380859 C26.99996759 30.70335577 23.00458386 29.33486129 19 28 C19 112.15 19 196.3 19 283 C12.73 283 6.46 283 0 283 C0 189.61 0 96.22 0 0 Z " fill="#135BA8" transform="translate(151,3)"/>
<path d="M0 0 C2.64 0.66 5.28 1.32 8 2 C13.94 3.485 13.94 3.485 20 5 C20 93.11 20 181.22 20 272 C13.4 272 6.8 272 0 272 C0 182.24 0 92.48 0 0 Z " fill="#267FAC" transform="translate(124,15)"/>
<path d="M0 0 C5.61 0.66 11.22 1.32 17 2 C17 86.81 17 171.62 17 259 C9 260 9 260 0 260 C0 174.2 0 88.4 0 0 Z " fill="#45A8B2" transform="translate(102,29)"/>
<path d="M0 0 C10 2 10 2 13 3 C13 84.51 13 166.02 13 250 C-29.13321226 252.40761213 -29.13321226 252.40761213 -41.54101562 253.00537109 C-43.20909195 253.08652254 -44.87705977 253.16992996 -46.54492188 253.25537109 C-58.70737348 253.87831464 -70.82189983 254.10848703 -83 254 C-77.22031976 248.22031976 -61.33429233 249.48083593 -53.33325195 248.82250977 C-45.53789585 248.16830529 -37.77016813 247.34153129 -30 246.4375 C-28.36272949 246.24716187 -28.36272949 246.24716187 -26.69238281 246.05297852 C-22.59178372 245.56903106 -18.51170338 245.08472282 -14.4375 244.41015625 C-9.65696791 243.83975185 -4.81444164 244 0 244 C0 163.48 0 82.96 0 0 Z " fill="#55CAB4" transform="translate(85,39)"/>
<path d="M0 0 C0 0.33 0 0.66 0 1 C10.89 1.495 10.89 1.495 22 2 C22 2.33 22 2.66 22 3 C16.36675178 3.29100795 10.73322038 3.57548041 5.09936523 3.85449219 C3.19205319 3.94980182 1.28482194 4.04674569 -0.62231445 4.14550781 C-13.42763729 4.80721181 -26.17758209 5.13351856 -39 5 C-32.13225952 -1.86774048 -9.11051956 -0.07053305 0 0 Z " fill="#87D9CA" transform="translate(41,288)"/>
<path d="M0 0 C5.21979128 -0.1799928 9.07262981 0.02905192 14 2 C14 2.33 14 2.66 14 3 C6.74 3 -0.52 3 -8 3 C-8 2.67 -8 2.34 -8 2 C-5.36 1.67 -2.72 1.34 0 1 C0 0.67 0 0.34 0 0 Z " fill="#98B8D9" transform="translate(314,290)"/>
<path d="M0 0 C3.3 0.33 6.6 0.66 10 1 C10 1.66 10 2.32 10 3 C8.72125 3.061875 7.4425 3.12375 6.125 3.1875 C5.40570313 3.22230469 4.68640625 3.25710938 3.9453125 3.29296875 C3.30335938 3.19628906 2.66140625 3.09960938 2 3 C1.34 2.01 0.68 1.02 0 0 Z " fill="#D4E1EF" transform="translate(327,291)"/>
</svg>
