<?xml version="1.0" encoding="UTF-8"?>
<svg version="1.1" xmlns="http://www.w3.org/2000/svg" width="525" height="446">
<path d="M0 0 C173.25 0 346.5 0 525 0 C525 147.18 525 294.36 525 446 C351.75 446 178.5 446 0 446 C0 298.82 0 151.64 0 0 Z " fill="#FEFEFE" transform="translate(0,0)"/>
<path d="M0 0 C4.36669967 0 5.65723761 0.04490429 9.3125 1.6875 C13.80793041 3.58915442 18.3350378 5.0879916 23 6.5 C28.29323045 8.10991697 33.40417214 9.89771238 38.51171875 12.03515625 C42.54615557 13.59952971 46.70023111 14.76081678 50.84375 16 C54.45764396 17.14499611 57.90851052 18.54639398 61.40625 20 C65.37610484 21.53054644 69.44542348 22.69558616 73.53125 23.875 C76.21469907 24.74530781 78.74870844 25.6917176 81.3515625 26.76171875 C88.74424288 29.76404088 96.32154551 32.25099986 103.875 34.8125 C116.60729339 39.14232295 129.30592773 43.5570747 142 48 C142 171.42 142 294.84 142 422 C144.97 422 147.94 422 151 422 C153.18102414 422.20725667 155.35831301 422.46110415 157.52734375 422.76953125 C159.3381543 423.01993164 159.3381543 423.01993164 161.18554688 423.27539062 C162.42369141 423.45263672 163.66183594 423.62988281 164.9375 423.8125 C177.78915708 425.62826463 190.66458687 427.14460675 203.5607605 428.6086731 C209.14673391 429.24426177 214.73151783 429.89011575 220.31640625 430.53515625 C222.52408333 430.78975874 224.73176562 431.04431605 226.93945312 431.29882812 C228.03008057 431.42459229 229.12070801 431.55035645 230.24438477 431.67993164 C232.4725672 431.93683414 234.70075741 432.19366912 236.92895508 432.45043945 C249.95447689 433.95152893 262.97911097 435.45919292 276 437 C276 437.33 276 437.66 276 438 C258.38462443 438.2299015 240.89630657 437.573279 223.3125 436.5625 C220.83401572 436.42586249 218.35550008 436.28979273 215.87695312 436.15429688 C204.90564854 435.54655484 193.95813381 434.84293337 183 434 C163.2 433.34 143.4 432.68 123 432 C123 312.21 123 192.42 123 69 C119.7 68.34 116.4 67.68 113 67 C108.89464304 66.01851769 104.82425611 64.91560584 100.75 63.8125 C99.6168335 63.50715332 98.48366699 63.20180664 97.31616211 62.88720703 C89.08366224 60.63899725 80.95821597 58.13831222 72.84765625 55.48779297 C66.36268804 53.3842077 59.84622238 51.54253629 53.21704102 49.94873047 C44.59484688 47.80965585 36.52474858 44.84158286 28 42 C28 169.05 28 296.1 28 427 C18.76 427 9.52 427 0 427 C0 286.09 0 145.18 0 0 Z " fill="#581881" transform="translate(241,3)"/>
<path d="M0 0 C4.4126416 0.63037737 8.24269167 1.2239364 12.4609375 2.375 C13.42644531 2.63796875 14.39195312 2.9009375 15.38671875 3.171875 C16.86591797 3.58179688 16.86591797 3.58179688 18.375 4 C19.38433594 4.27328125 20.39367187 4.5465625 21.43359375 4.828125 C28.86983998 6.86983998 28.86983998 6.86983998 30 8 C30.09799208 10.12667654 30.12371167 12.25668059 30.12304783 14.38561344 C30.12420167 15.06380513 30.12535552 15.74199683 30.12654433 16.44073978 C30.12921755 18.74177217 30.12468308 21.04273633 30.12025452 23.34376526 C30.12069008 24.99867343 30.1215647 26.65358153 30.12284368 28.30848926 C30.12509167 32.87826973 30.12106323 37.44802699 30.11606562 42.0178045 C30.11176564 46.93739663 30.11320722 51.85698734 30.1139679 56.77658081 C30.11449342 65.30748876 30.11134367 73.83838909 30.10573006 82.36929512 C30.09761888 94.7037046 30.09500023 107.03811037 30.09374207 119.37252223 C30.09155094 139.38205793 30.08488922 159.39158956 30.07543945 179.40112305 C30.06626689 198.84383117 30.0591853 218.2865382 30.05493164 237.72924805 C30.05453756 239.5255318 30.05453756 239.5255318 30.05413551 241.35810412 C30.05283051 247.36544605 30.0515668 253.37278799 30.05032361 259.38012993 C30.03994911 309.25342277 30.02232916 359.12671119 30 409 C19.83721347 410.3550382 10.52519335 410 0 410 C0 274.7 0 139.4 0 0 Z " fill="#3682AE" transform="translate(200,22)"/>
<path d="M0 0 C12 2 12 2 24 5 C24 132.38 24 259.76 24 391 C17 392 17 392 0 392 C0 262.64 0 133.28 0 0 Z " fill="#A6B3BB" transform="translate(167,42)"/>
<path d="M0 0 C6.68902916 1.21618712 13.36320417 2.52515648 20 4 C20 127.09 20 250.18 20 377 C-17.29 378.65 -54.58 380.3 -93 382 C-99.93 382.33 -106.86 382.66 -114 383 C-119.00725808 383.03551247 -123.99612068 383.06917806 -129 383 C-125.59850336 380.73233557 -123.82809468 380.57477117 -119.80078125 380.17578125 C-119.15835983 380.10887589 -118.51593842 380.04197052 -117.85404968 379.97303772 C-116.43225543 379.82521278 -115.01009593 379.68087111 -113.58764648 379.53948975 C-109.57321343 379.13897262 -105.56200951 378.70862402 -101.55078125 378.27734375 C-100.66319122 378.18217468 -99.7756012 378.08700562 -98.8611145 377.98895264 C-85.01654247 376.48303969 -71.20613217 374.6779307 -57.39248657 372.91445923 C-44.99999881 371.33270065 -32.61781619 369.76750425 -20.17553711 368.62704468 C-17.25262857 368.35492514 -14.39154055 368.08746361 -11.5234375 367.44677734 C-7.73827486 366.7766102 -3.84403176 367 0 367 C0 245.89 0 124.78 0 0 Z " fill="#EDA3A3" transform="translate(141,58)"/>
<path d="M0 0 C12.35085829 1.2006005 24.68177797 2.50011286 37 4 C37 4.33 37 4.66 37 5 C23.2915551 5.11252038 9.67351584 5.04037621 -4 4 C-3.34 3.525625 -2.68 3.05125 -2 2.5625 C-1.34 2.046875 -0.68 1.53125 0 1 C0 0.67 0 0.34 0 0 Z " fill="#8251A0" transform="translate(480,436)"/>
<path d="M0 0 C1.18851562 0.10183594 2.37703125 0.20367187 3.6015625 0.30859375 C4.51679688 0.39238281 5.43203125 0.47617187 6.375 0.5625 C6.375 1.5525 6.375 2.5425 6.375 3.5625 C-2.865 3.5625 -12.105 3.5625 -21.625 3.5625 C-21.625 3.2325 -21.625 2.9025 -21.625 2.5625 C-17.335 2.5625 -13.045 2.5625 -8.625 2.5625 C-8.625 1.9025 -8.625 1.2425 -8.625 0.5625 C-5.68113377 -0.90943312 -3.25109964 -0.28686173 0 0 Z " fill="#682E8D" transform="translate(473.625,435.4375)"/>
</svg>
